<?xml version="1.0" standalone="no"?>
<!DOCTYPE svg PUBLIC "-//W3C//DTD SVG 20010904//EN"
 "http://www.w3.org/TR/2001/REC-SVG-20010904/DTD/svg10.dtd">
<svg version="1.0" xmlns="http://www.w3.org/2000/svg"
 width="259.000000pt" height="49.000000pt" viewBox="0 0 259.000000 49.000000"
 preserveAspectRatio="xMidYMid meet">

<g transform="translate(0.000000,49.000000) scale(0.100000,-0.100000)"
fill="#000000" stroke="none">
<path d="M1840 471 c0 -5 32 -42 70 -82 l71 -73 -3 -75 c-3 -71 -4 -75 -29
-82 -35 -9 -79 0 -86 17 -10 27 6 62 32 68 20 5 25 13 25 38 0 30 0 31 -42 25
-78 -10 -118 -84 -88 -161 13 -36 59 -56 130 -56 53 0 60 -2 60 -20 0 -17 7
-20 40 -20 l40 0 0 135 0 136 -66 79 c-64 78 -67 80 -110 80 -24 0 -44 -4 -44
-9z"/>
<path d="M208 334 c-5 -4 -8 -18 -8 -30 0 -20 6 -23 43 -26 34 -2 43 -7 45
-25 3 -20 -2 -22 -50 -25 -50 -3 -53 -5 -56 -30 -2 -18 1 -28 10 -28 7 0 21
-18 30 -40 19 -47 62 -70 128 -70 70 0 130 45 130 97 0 16 6 23 19 23 24 0 31
-19 31 -81 l0 -50 38 3 37 3 3 137 3 137 -26 7 c-36 9 -55 -2 -55 -30 0 -37
-10 -56 -30 -56 -13 0 -20 9 -22 28 -3 23 -8 27 -33 27 l-30 0 -5 -76 c-6 -87
-19 -109 -64 -109 -60 0 -74 37 -23 60 50 23 61 83 24 134 -11 14 -30 21 -73
24 -33 2 -62 0 -66 -4z"/>
<path d="M698 334 c-5 -4 -8 -20 -8 -35 0 -28 0 -28 51 -22 46 5 51 4 48 -12
-3 -13 -20 -23 -54 -31 -54 -14 -95 -51 -95 -85 0 -92 132 -137 228 -79 37 23
38 27 14 58 l-18 24 -35 -21 c-40 -25 -82 -27 -99 -6 -18 22 2 42 52 50 81 14
115 87 63 135 -19 18 -40 25 -83 28 -31 2 -60 0 -64 -4z"/>
<path d="M993 325 c-65 -28 -95 -110 -65 -178 26 -58 76 -89 134 -85 39 3 43
6 46 31 3 24 0 27 -27 27 -43 0 -60 9 -77 41 -27 54 15 119 77 119 24 0 29 4
29 24 0 38 -56 48 -117 21z"/>
<path d="M1147 334 c-4 -4 -7 -29 -7 -56 l0 -48 -50 0 c-49 0 -50 -1 -50 -30
0 -29 1 -30 50 -30 l49 0 3 -58 3 -57 38 -3 38 -3 -3 143 -3 143 -30 3 c-17 2
-34 0 -38 -4z"/>
<path d="M1457 333 c-4 -3 -7 -17 -7 -30 0 -19 5 -23 33 -23 41 0 72 -21 64
-43 -4 -12 -22 -17 -64 -19 -57 -3 -58 -3 -61 -35 -3 -27 0 -33 17 -33 14 0
23 -11 32 -37 18 -58 25 -63 95 -63 l64 0 0 29 c0 28 -3 30 -42 33 -51 4 -65
32 -25 47 14 6 28 15 32 20 3 6 22 11 41 11 l34 0 0 -70 0 -70 40 0 41 0 -3
143 -3 142 -35 0 c-34 0 -35 -1 -38 -42 -3 -37 -6 -43 -26 -43 -18 0 -25 7
-30 30 -4 23 -15 35 -41 45 -35 15 -107 20 -118 8z"/>
<path d="M2128 334 c-13 -12 -9 -54 5 -55 98 -8 115 -15 104 -43 -4 -11 -24
-16 -69 -18 l-63 -3 -3 -32 c-3 -29 0 -33 20 -33 19 0 26 -9 38 -48 l15 -47
59 -3 c75 -4 85 0 79 32 -5 23 -10 26 -43 26 -26 0 -40 5 -44 16 -4 9 -5 18
-4 19 2 1 18 7 36 15 64 25 82 95 38 147 -21 24 -32 28 -92 31 -38 2 -72 0
-76 -4z"/>
<path d="M2385 331 c-3 -5 -6 -69 -7 -143 l-1 -133 39 0 39 0 3 134 c2 101 -1
136 -10 143 -18 11 -56 10 -63 -1z"/>
</g>
</svg>
